<mxfile host="app.diagrams.net" agent="Mozilla/5.0 (Windows NT 10.0; Win64; x64) AppleWebKit/537.36 (KHTML, like Gecko) Chrome/131.0.0.0 Safari/537.36 Edg/131.0.0.0" version="26.0.4">
  <diagram name="Page-1" id="edf60f1a-56cd-e834-aa8a-f176f3a09ee4">
    <mxGraphModel dx="773" dy="449" grid="1" gridSize="10" guides="1" tooltips="1" connect="1" arrows="1" fold="1" page="1" pageScale="1" pageWidth="1100" pageHeight="850" background="none" math="0" shadow="0">
      <root>
        <mxCell id="0" />
        <mxCell id="1" parent="0" />
        <mxCell id="Gp7I7l29wxPWBTThQjHt-5" value="" style="edgeStyle=orthogonalEdgeStyle;rounded=0;orthogonalLoop=1;jettySize=auto;html=1;" edge="1" parent="1" source="Gp7I7l29wxPWBTThQjHt-1" target="Gp7I7l29wxPWBTThQjHt-3">
          <mxGeometry relative="1" as="geometry" />
        </mxCell>
        <mxCell id="Gp7I7l29wxPWBTThQjHt-1" value="Start Program" style="strokeWidth=2;html=1;shape=mxgraph.flowchart.terminator;whiteSpace=wrap;" vertex="1" parent="1">
          <mxGeometry x="440" y="20" width="100" height="60" as="geometry" />
        </mxCell>
        <mxCell id="Gp7I7l29wxPWBTThQjHt-2" value="End Program" style="strokeWidth=2;html=1;shape=mxgraph.flowchart.terminator;whiteSpace=wrap;" vertex="1" parent="1">
          <mxGeometry x="80" y="775" width="100" height="60" as="geometry" />
        </mxCell>
        <mxCell id="Gp7I7l29wxPWBTThQjHt-7" value="" style="edgeStyle=orthogonalEdgeStyle;rounded=0;orthogonalLoop=1;jettySize=auto;html=1;" edge="1" parent="1" source="Gp7I7l29wxPWBTThQjHt-3" target="Gp7I7l29wxPWBTThQjHt-4">
          <mxGeometry relative="1" as="geometry" />
        </mxCell>
        <mxCell id="Gp7I7l29wxPWBTThQjHt-3" value="Welcome the User" style="rounded=1;whiteSpace=wrap;html=1;absoluteArcSize=1;arcSize=14;strokeWidth=2;fillColor=#f8cecc;strokeColor=#b85450;" vertex="1" parent="1">
          <mxGeometry x="440" y="110" width="100" height="40" as="geometry" />
        </mxCell>
        <mxCell id="Gp7I7l29wxPWBTThQjHt-9" value="" style="edgeStyle=orthogonalEdgeStyle;rounded=0;orthogonalLoop=1;jettySize=auto;html=1;" edge="1" parent="1" source="Gp7I7l29wxPWBTThQjHt-4" target="Gp7I7l29wxPWBTThQjHt-8">
          <mxGeometry relative="1" as="geometry" />
        </mxCell>
        <mxCell id="Gp7I7l29wxPWBTThQjHt-4" value="Ask for the&lt;div&gt;Users Name&lt;/div&gt;" style="shape=parallelogram;html=1;strokeWidth=2;perimeter=parallelogramPerimeter;whiteSpace=wrap;rounded=1;arcSize=12;size=0.23;fillColor=#fff2cc;strokeColor=#d6b656;" vertex="1" parent="1">
          <mxGeometry x="440" y="180" width="100" height="60" as="geometry" />
        </mxCell>
        <mxCell id="Gp7I7l29wxPWBTThQjHt-11" value="" style="edgeStyle=orthogonalEdgeStyle;rounded=0;orthogonalLoop=1;jettySize=auto;html=1;" edge="1" parent="1" source="Gp7I7l29wxPWBTThQjHt-8" target="Gp7I7l29wxPWBTThQjHt-10">
          <mxGeometry relative="1" as="geometry" />
        </mxCell>
        <mxCell id="Gp7I7l29wxPWBTThQjHt-8" value="Start The Game" style="whiteSpace=wrap;html=1;strokeWidth=2;rounded=1;arcSize=12;" vertex="1" parent="1">
          <mxGeometry x="435" y="270" width="110" height="40" as="geometry" />
        </mxCell>
        <mxCell id="Gp7I7l29wxPWBTThQjHt-13" value="" style="edgeStyle=orthogonalEdgeStyle;rounded=0;orthogonalLoop=1;jettySize=auto;html=1;" edge="1" parent="1" source="Gp7I7l29wxPWBTThQjHt-10" target="Gp7I7l29wxPWBTThQjHt-12">
          <mxGeometry relative="1" as="geometry" />
        </mxCell>
        <mxCell id="Gp7I7l29wxPWBTThQjHt-10" value="Generate a Random Number" style="rounded=1;whiteSpace=wrap;html=1;absoluteArcSize=1;arcSize=14;strokeWidth=2;" vertex="1" parent="1">
          <mxGeometry x="432.5" y="340" width="115" height="40" as="geometry" />
        </mxCell>
        <mxCell id="Gp7I7l29wxPWBTThQjHt-15" value="" style="edgeStyle=orthogonalEdgeStyle;rounded=0;orthogonalLoop=1;jettySize=auto;html=1;" edge="1" parent="1" source="Gp7I7l29wxPWBTThQjHt-12" target="Gp7I7l29wxPWBTThQjHt-14">
          <mxGeometry relative="1" as="geometry" />
        </mxCell>
        <mxCell id="Gp7I7l29wxPWBTThQjHt-12" value="Wait for the user&lt;div&gt;to enter a guess&lt;/div&gt;" style="shape=parallelogram;html=1;strokeWidth=2;perimeter=parallelogramPerimeter;whiteSpace=wrap;rounded=1;arcSize=12;size=0.23;" vertex="1" parent="1">
          <mxGeometry x="385" y="410" width="210" height="60" as="geometry" />
        </mxCell>
        <mxCell id="Gp7I7l29wxPWBTThQjHt-17" value="false" style="edgeStyle=orthogonalEdgeStyle;rounded=0;orthogonalLoop=1;jettySize=auto;html=1;" edge="1" parent="1" source="Gp7I7l29wxPWBTThQjHt-14" target="Gp7I7l29wxPWBTThQjHt-16">
          <mxGeometry relative="1" as="geometry" />
        </mxCell>
        <mxCell id="Gp7I7l29wxPWBTThQjHt-20" value="true" style="edgeStyle=orthogonalEdgeStyle;rounded=0;orthogonalLoop=1;jettySize=auto;html=1;entryX=0;entryY=0.5;entryDx=0;entryDy=0;" edge="1" parent="1" source="Gp7I7l29wxPWBTThQjHt-14" target="Gp7I7l29wxPWBTThQjHt-23">
          <mxGeometry relative="1" as="geometry">
            <mxPoint x="630" y="620" as="targetPoint" />
          </mxGeometry>
        </mxCell>
        <mxCell id="Gp7I7l29wxPWBTThQjHt-14" value="Was the input a number?" style="strokeWidth=2;html=1;shape=mxgraph.flowchart.decision;whiteSpace=wrap;" vertex="1" parent="1">
          <mxGeometry x="425" y="570" width="130" height="100" as="geometry" />
        </mxCell>
        <mxCell id="Gp7I7l29wxPWBTThQjHt-16" value="Show error message to user" style="whiteSpace=wrap;html=1;strokeWidth=2;rounded=1;arcSize=12;" vertex="1" parent="1">
          <mxGeometry x="220" y="600" width="110" height="40" as="geometry" />
        </mxCell>
        <mxCell id="Gp7I7l29wxPWBTThQjHt-18" value="" style="endArrow=classic;html=1;rounded=0;exitX=0.5;exitY=0;exitDx=0;exitDy=0;entryX=0;entryY=0.5;entryDx=0;entryDy=0;" edge="1" parent="1" source="Gp7I7l29wxPWBTThQjHt-16" target="Gp7I7l29wxPWBTThQjHt-12">
          <mxGeometry width="50" height="50" relative="1" as="geometry">
            <mxPoint x="630" y="370" as="sourcePoint" />
            <mxPoint x="680" y="320" as="targetPoint" />
            <Array as="points">
              <mxPoint x="275" y="440" />
            </Array>
          </mxGeometry>
        </mxCell>
        <mxCell id="Gp7I7l29wxPWBTThQjHt-22" value="Too Low" style="edgeStyle=orthogonalEdgeStyle;rounded=0;orthogonalLoop=1;jettySize=auto;html=1;" edge="1" parent="1" source="Gp7I7l29wxPWBTThQjHt-19" target="Gp7I7l29wxPWBTThQjHt-21">
          <mxGeometry relative="1" as="geometry" />
        </mxCell>
        <mxCell id="Gp7I7l29wxPWBTThQjHt-28" value="Too&lt;div&gt;High&lt;/div&gt;" style="edgeStyle=orthogonalEdgeStyle;rounded=0;orthogonalLoop=1;jettySize=auto;html=1;entryX=0;entryY=0.5;entryDx=0;entryDy=0;" edge="1" parent="1" source="Gp7I7l29wxPWBTThQjHt-19" target="Gp7I7l29wxPWBTThQjHt-29">
          <mxGeometry relative="1" as="geometry">
            <mxPoint x="1010" y="620" as="targetPoint" />
          </mxGeometry>
        </mxCell>
        <mxCell id="Gp7I7l29wxPWBTThQjHt-33" value="Correct" style="edgeStyle=orthogonalEdgeStyle;rounded=0;orthogonalLoop=1;jettySize=auto;html=1;" edge="1" parent="1" source="Gp7I7l29wxPWBTThQjHt-19" target="Gp7I7l29wxPWBTThQjHt-32">
          <mxGeometry relative="1" as="geometry" />
        </mxCell>
        <mxCell id="Gp7I7l29wxPWBTThQjHt-19" value="Was the number&lt;div&gt;correct, too high,&amp;nbsp;&lt;/div&gt;&lt;div&gt;or too low&lt;/div&gt;" style="strokeWidth=2;html=1;shape=mxgraph.flowchart.decision;whiteSpace=wrap;" vertex="1" parent="1">
          <mxGeometry x="780" y="570" width="140" height="100" as="geometry" />
        </mxCell>
        <mxCell id="Gp7I7l29wxPWBTThQjHt-21" value="Message that the guess was too low" style="rounded=1;whiteSpace=wrap;html=1;strokeWidth=2;" vertex="1" parent="1">
          <mxGeometry x="790" y="470" width="120" height="60" as="geometry" />
        </mxCell>
        <mxCell id="Gp7I7l29wxPWBTThQjHt-24" value="" style="edgeStyle=orthogonalEdgeStyle;rounded=0;orthogonalLoop=1;jettySize=auto;html=1;" edge="1" parent="1" source="Gp7I7l29wxPWBTThQjHt-23" target="Gp7I7l29wxPWBTThQjHt-19">
          <mxGeometry relative="1" as="geometry" />
        </mxCell>
        <mxCell id="Gp7I7l29wxPWBTThQjHt-23" value="Increment guess count" style="rounded=1;whiteSpace=wrap;html=1;absoluteArcSize=1;arcSize=14;strokeWidth=2;" vertex="1" parent="1">
          <mxGeometry x="640" y="600" width="100" height="40" as="geometry" />
        </mxCell>
        <mxCell id="Gp7I7l29wxPWBTThQjHt-25" value="" style="endArrow=classic;html=1;rounded=0;exitX=0;exitY=0.5;exitDx=0;exitDy=0;entryX=0.75;entryY=1;entryDx=0;entryDy=0;" edge="1" parent="1" source="Gp7I7l29wxPWBTThQjHt-21" target="Gp7I7l29wxPWBTThQjHt-12">
          <mxGeometry relative="1" as="geometry">
            <mxPoint x="610" y="570" as="sourcePoint" />
            <mxPoint x="710" y="570" as="targetPoint" />
            <Array as="points">
              <mxPoint x="543" y="500" />
            </Array>
          </mxGeometry>
        </mxCell>
        <mxCell id="Gp7I7l29wxPWBTThQjHt-29" value="Message that the guess was too high" style="rounded=1;whiteSpace=wrap;html=1;strokeWidth=2;" vertex="1" parent="1">
          <mxGeometry x="970" y="590" width="120" height="60" as="geometry" />
        </mxCell>
        <mxCell id="Gp7I7l29wxPWBTThQjHt-31" value="" style="endArrow=classic;html=1;rounded=0;exitX=0.5;exitY=0;exitDx=0;exitDy=0;entryX=1;entryY=0.5;entryDx=0;entryDy=0;" edge="1" parent="1" source="Gp7I7l29wxPWBTThQjHt-29" target="Gp7I7l29wxPWBTThQjHt-12">
          <mxGeometry relative="1" as="geometry">
            <mxPoint x="800" y="510" as="sourcePoint" />
            <mxPoint x="553" y="480" as="targetPoint" />
            <Array as="points">
              <mxPoint x="1030" y="440" />
            </Array>
          </mxGeometry>
        </mxCell>
        <mxCell id="Gp7I7l29wxPWBTThQjHt-35" value="" style="edgeStyle=orthogonalEdgeStyle;rounded=0;orthogonalLoop=1;jettySize=auto;html=1;" edge="1" parent="1" source="Gp7I7l29wxPWBTThQjHt-32" target="Gp7I7l29wxPWBTThQjHt-34">
          <mxGeometry relative="1" as="geometry" />
        </mxCell>
        <mxCell id="Gp7I7l29wxPWBTThQjHt-32" value="Message that the guess was correct and how many guess it took" style="rounded=1;whiteSpace=wrap;html=1;absoluteArcSize=1;arcSize=14;strokeWidth=2;" vertex="1" parent="1">
          <mxGeometry x="770" y="720" width="160" height="50" as="geometry" />
        </mxCell>
        <mxCell id="Gp7I7l29wxPWBTThQjHt-37" value="" style="edgeStyle=orthogonalEdgeStyle;rounded=0;orthogonalLoop=1;jettySize=auto;html=1;" edge="1" parent="1" source="Gp7I7l29wxPWBTThQjHt-34" target="Gp7I7l29wxPWBTThQjHt-36">
          <mxGeometry relative="1" as="geometry" />
        </mxCell>
        <mxCell id="Gp7I7l29wxPWBTThQjHt-34" value="Ask if they&lt;div&gt;want to play again?&lt;/div&gt;" style="shape=parallelogram;html=1;strokeWidth=2;perimeter=parallelogramPerimeter;whiteSpace=wrap;rounded=1;arcSize=12;size=0.23;" vertex="1" parent="1">
          <mxGeometry x="595" y="715" width="100" height="60" as="geometry" />
        </mxCell>
        <mxCell id="Gp7I7l29wxPWBTThQjHt-36" value="Play Again?" style="strokeWidth=2;html=1;shape=mxgraph.flowchart.decision;whiteSpace=wrap;" vertex="1" parent="1">
          <mxGeometry x="433" y="695" width="100" height="100" as="geometry" />
        </mxCell>
        <mxCell id="Gp7I7l29wxPWBTThQjHt-38" value="No" style="endArrow=classic;html=1;rounded=0;exitX=0;exitY=0.5;exitDx=0;exitDy=0;entryX=0.5;entryY=0;entryDx=0;entryDy=0;exitPerimeter=0;entryPerimeter=0;" edge="1" parent="1" source="Gp7I7l29wxPWBTThQjHt-36" target="Gp7I7l29wxPWBTThQjHt-2">
          <mxGeometry relative="1" as="geometry">
            <mxPoint x="385" y="715" as="sourcePoint" />
            <mxPoint x="138" y="685" as="targetPoint" />
            <Array as="points">
              <mxPoint x="130" y="745" />
            </Array>
          </mxGeometry>
        </mxCell>
        <mxCell id="Gp7I7l29wxPWBTThQjHt-39" value="Yes" style="endArrow=classic;html=1;rounded=0;exitX=0.5;exitY=0;exitDx=0;exitDy=0;entryX=0;entryY=0.5;entryDx=0;entryDy=0;exitPerimeter=0;" edge="1" parent="1" source="Gp7I7l29wxPWBTThQjHt-36" target="Gp7I7l29wxPWBTThQjHt-8">
          <mxGeometry relative="1" as="geometry">
            <mxPoint x="453" y="680" as="sourcePoint" />
            <mxPoint x="150" y="710" as="targetPoint" />
            <Array as="points">
              <mxPoint x="150" y="695" />
              <mxPoint x="150" y="290" />
            </Array>
          </mxGeometry>
        </mxCell>
        <mxCell id="Gp7I7l29wxPWBTThQjHt-40" value="" style="endArrow=classic;html=1;rounded=0;exitX=0.5;exitY=1;exitDx=0;exitDy=0;entryX=0.5;entryY=1;entryDx=0;entryDy=0;exitPerimeter=0;" edge="1" parent="1" source="Gp7I7l29wxPWBTThQjHt-36" target="Gp7I7l29wxPWBTThQjHt-34">
          <mxGeometry relative="1" as="geometry">
            <mxPoint x="595" y="825" as="sourcePoint" />
            <mxPoint x="348" y="795" as="targetPoint" />
            <Array as="points">
              <mxPoint x="483" y="820" />
              <mxPoint x="645" y="820" />
            </Array>
          </mxGeometry>
        </mxCell>
        <mxCell id="Gp7I7l29wxPWBTThQjHt-43" value="Clint MacDonald&lt;div&gt;Jan 10, 2025&lt;/div&gt;&lt;div&gt;Work Flow Diagram 1&lt;/div&gt;" style="rounded=1;whiteSpace=wrap;html=1;absoluteArcSize=1;arcSize=14;strokeWidth=2;" vertex="1" parent="1">
          <mxGeometry x="90" y="50" width="100" height="100" as="geometry" />
        </mxCell>
      </root>
    </mxGraphModel>
  </diagram>
</mxfile>
